<svg width="40" height="40" viewBox="0 0 40 40" fill="none" xmlns="http://www.w3.org/2000/svg">
<g clip-path="url(#clip0_1936_407)">
<path d="M20.0002 36.25C19.8357 36.2509 19.6726 36.2194 19.5203 36.1572C19.3681 36.095 19.2295 36.0033 19.1127 35.8875L7.86273 24.6375C7.62735 24.4021 7.49512 24.0829 7.49512 23.75C7.49512 23.4171 7.62735 23.0979 7.86273 22.8625C8.09811 22.6271 8.41735 22.4949 8.75023 22.4949C9.08311 22.4949 9.40235 22.6271 9.63773 22.8625L20.0002 33.2375L30.3627 22.8625C30.4793 22.7459 30.6176 22.6535 30.7699 22.5904C30.9222 22.5273 31.0854 22.4949 31.2502 22.4949C31.4151 22.4949 31.5783 22.5273 31.7305 22.5904C31.8828 22.6535 32.0212 22.7459 32.1377 22.8625C32.2543 22.979 32.3467 23.1174 32.4098 23.2697C32.4729 23.422 32.5053 23.5852 32.5053 23.75C32.5053 23.9148 32.4729 24.078 32.4098 24.2303C32.3467 24.3826 32.2543 24.5209 32.1377 24.6375L20.8877 35.8875C20.7709 36.0033 20.6324 36.095 20.4801 36.1572C20.3278 36.2194 20.1647 36.2509 20.0002 36.25Z" fill="white"/>
<path d="M20 36.25C19.6685 36.25 19.3505 36.1183 19.1161 35.8839C18.8817 35.6495 18.75 35.3315 18.75 35V5C18.75 4.66848 18.8817 4.35054 19.1161 4.11612C19.3505 3.8817 19.6685 3.75 20 3.75C20.3315 3.75 20.6495 3.8817 20.8839 4.11612C21.1183 4.35054 21.25 4.66848 21.25 5V35C21.25 35.3315 21.1183 35.6495 20.8839 35.8839C20.6495 36.1183 20.3315 36.25 20 36.25Z" fill="white"/>
</g>
<defs>
<clipPath id="clip0_1936_407">
<rect width="40" height="40" fill="white"/>
</clipPath>
</defs>
</svg>
