<svg width="72" height="30" viewBox="0 0 72 30" fill="none" xmlns="http://www.w3.org/2000/svg">
<circle cx="64" cy="19" r="8" fill="#0B7C8E"/>
<circle cx="64" cy="13" r="8" fill="#D59C8C"/>
<path d="M1.992 23H0.12L7.392 6.92H9.768L17.064 23H15.144L12.984 18.272H4.152L1.992 23ZM7.608 10.64L4.848 16.736H12.288L9.504 10.64L8.616 8.552H8.472L7.608 10.64ZM23.7077 22.04C20.1797 22.04 18.0197 19.712 18.0197 16.472C18.0197 13.232 20.2517 10.904 23.8997 10.904C26.3957 10.904 28.3637 12.08 28.8437 14.192H28.9637V11.144H30.4997V21.872C30.4997 25.784 28.0277 27.32 24.4517 27.32C21.2357 27.32 18.7877 25.712 18.7877 22.952H20.4917C20.4917 25.04 21.8837 25.856 24.5237 25.856C27.5957 25.856 28.7957 24.92 28.7957 21.968V18.872H28.6757C28.1957 20.696 26.4437 22.04 23.7077 22.04ZM19.7237 16.472C19.7237 19.496 21.5957 20.528 24.1637 20.528C27.0917 20.528 28.7957 19.064 28.7957 16.544V16.136C28.7957 13.808 27.0197 12.416 24.2837 12.416C21.6197 12.416 19.7237 13.448 19.7237 16.472ZM39.0253 23.24C35.2093 23.24 32.7853 20.84 32.7853 17.072C32.7853 13.472 35.1853 10.904 39.0013 10.904C42.4813 10.904 44.9533 12.92 44.9533 16.448C44.9533 16.88 44.9053 17.24 44.8333 17.552H34.3933C34.4893 20.216 35.8573 21.824 39.0013 21.824C41.7853 21.824 43.0813 20.792 43.0813 19.064V18.896H44.7853V19.064C44.7853 21.536 42.3373 23.24 39.0253 23.24ZM38.9773 12.32C35.9053 12.32 34.5133 13.904 34.3933 16.496H43.3453C43.3453 16.376 43.3453 16.256 43.3453 16.136C43.3453 13.64 41.7613 12.32 38.9773 12.32ZM50.5014 23.24C48.1734 23.24 46.5894 22.136 46.5894 20.216C46.5894 18.272 48.1974 17.432 50.4054 17.192L56.0454 16.568V15.656C56.0454 13.352 55.0374 12.44 52.4454 12.44C49.9014 12.44 48.5574 13.352 48.5574 15.44V15.536H46.8534V15.44C46.8534 12.944 48.9174 10.904 52.5654 10.904C56.1654 10.904 57.7014 12.968 57.7014 15.584V23H56.1654V19.808H56.0454C55.3494 21.992 53.2614 23.24 50.5014 23.24ZM48.2934 20.096C48.2934 21.296 49.0854 21.92 50.8854 21.92C53.7654 21.92 56.0454 20.648 56.0454 17.792V17.696L50.9334 18.272C49.1574 18.44 48.2934 18.872 48.2934 20.096ZM67.7745 23H65.2065C62.8545 23 61.3425 22.016 61.3425 19.232V12.608H59.2305V11.144H61.3425V8.312H63.0705V11.144H67.7745V12.608H63.0705V19.328C63.0705 20.984 63.8865 21.44 65.6145 21.44H67.7745V23Z" fill="white"/>
</svg>
