<svg width="105" height="104" viewBox="0 0 105 104" fill="none" xmlns="http://www.w3.org/2000/svg">
<path d="M55.4071 94V103.604H53.8391V95.358H49.0511V94H55.4071Z" fill="white"/>
<path d="M44.0065 94.2812L41.3007 103.496L34.1544 101.398L34.5331 100.108L40.1749 101.765L40.9282 99.1991L35.8775 97.7161L36.2561 96.4265L41.3069 97.9096L42.1233 95.129L36.4009 93.4487L36.7796 92.1592L44.0065 94.2812Z" fill="white"/>
<path d="M33.5458 90.8129L25.1853 96.8563L23.5011 95.7739L25.5135 85.6509L26.9268 86.5592L26.4418 88.8935L30.2695 91.3534L32.1914 89.9425L33.5458 90.8129ZM29.1264 92.1998L26.1585 90.2924L25.544 93.2425C25.5221 93.3283 25.4944 93.4492 25.4608 93.6051C25.4272 93.761 25.3899 93.9312 25.349 94.1157C25.3002 94.2951 25.2554 94.4771 25.2145 94.6616C25.1606 94.8489 25.113 95.018 25.0715 95.1689L25.1422 95.2143C25.2852 95.0954 25.4576 94.9566 25.6595 94.7978C25.8613 94.6391 26.0581 94.4882 26.2499 94.3452C26.4338 94.1971 26.5872 94.0793 26.71 93.9918L29.1264 92.1998Z" fill="white"/>
<path d="M22.7584 83.0587L15.5002 89.348L12.1905 85.5284C11.7443 85.0135 11.4662 84.5073 11.3563 84.0098C11.2463 83.5123 11.2837 83.0353 11.4685 82.5788C11.6463 82.1283 11.9539 81.7136 12.3912 81.3347C12.8779 80.9129 13.3958 80.6556 13.9451 80.5625C14.4943 80.4695 15.0277 80.5506 15.5454 80.806L17.2392 76.6892L18.3577 77.9801L16.7457 81.7851L18.9277 84.3032L21.7316 81.8737L22.7584 83.0587ZM17.9332 85.165L15.7328 82.6257C15.4028 82.2448 15.0363 82.0499 14.6333 82.0409C14.2242 82.0249 13.8187 82.1911 13.4166 82.5394C13.1697 82.7534 13.0014 82.9795 12.9115 83.2179C12.8146 83.4624 12.7968 83.7125 12.8579 83.9683C12.919 84.2241 13.0626 84.4825 13.2887 84.7435L15.4891 87.2828L17.9332 85.165Z" fill="white"/>
<path d="M15.3471 73.4902L6.61096 77.4799L5.98286 76.1045L9.63849 69.6177C9.66617 69.5435 9.71313 69.4554 9.77938 69.3533C9.84175 69.2427 9.90606 69.1364 9.97231 69.0343C10.0386 68.9322 10.0956 68.8549 10.1434 68.8023L10.1143 68.7386C9.98695 68.7968 9.86385 68.853 9.74499 68.9073C9.62613 68.9616 9.50727 69.0158 9.38841 69.0701L3.91243 71.5709L3.28432 70.1956L12.0204 66.2059L12.6253 67.5303L8.92922 74.0972C8.85836 74.2116 8.76979 74.3547 8.6635 74.5263C8.54871 74.7019 8.4605 74.8345 8.39887 74.9242L8.42795 74.9879C8.54681 74.9336 8.66991 74.8774 8.79726 74.8192C8.91612 74.7649 9.04347 74.7068 9.1793 74.6448L14.719 72.1149L15.3471 73.4902Z" fill="white"/>
<path d="M7.36571 58.8447C7.41485 59.1865 7.38478 59.502 7.27548 59.7911C7.15562 60.0724 6.97765 60.3101 6.74155 60.5044C6.4949 60.6907 6.20066 60.8085 5.85884 60.8576C5.50778 60.9081 5.19229 60.878 4.91236 60.7674C4.62187 60.6489 4.38412 60.4709 4.19912 60.2335C4.00355 59.9881 3.88119 59.6946 3.83204 59.3527C3.78157 59.0017 3.81626 58.6855 3.93612 58.4043C4.04541 58.1151 4.22339 57.8774 4.47005 57.691C4.70614 57.4968 4.99972 57.3744 5.35077 57.3239C5.69259 57.2748 6.00875 57.3095 6.29924 57.428C6.57917 57.5386 6.81691 57.7166 7.01249 57.962C7.19749 58.1994 7.31523 58.4936 7.36571 58.8447Z" fill="white"/>
<path d="M9.67666 50.999L0.17041 49.6322L0.519081 47.2071L6.54879 46.1929C6.72305 46.1614 6.92041 46.1332 7.14086 46.1083C7.36131 46.0834 7.57186 46.0618 7.7725 46.0435C7.97448 46.016 8.15137 45.999 8.30316 45.9925L8.3191 45.8817C8.18318 45.8433 8.02154 45.787 7.83418 45.7129C7.64682 45.6389 7.45021 45.5634 7.24437 45.4867C7.03986 45.4007 6.84921 45.3167 6.67241 45.2347L1.18853 42.551L1.53122 40.1675L11.0375 41.5343L10.8163 43.0725L5.60589 42.3233C5.25484 42.2728 4.89059 42.2158 4.51314 42.1521C4.1357 42.0884 3.79983 42.0306 3.50553 41.9789C3.21123 41.9272 3.02251 41.8953 2.93936 41.8834L2.92343 41.9942C3.02239 42.0273 3.19128 42.0987 3.43009 42.2085C3.66099 42.3077 3.9097 42.4142 4.17622 42.5279C4.44274 42.6417 4.67298 42.7455 4.86692 42.8394L10.4517 45.6084L10.2545 46.9803L4.12964 48.0657C3.94615 48.0959 3.72965 48.126 3.48016 48.1562C3.23066 48.1863 2.97655 48.2158 2.71781 48.2446C2.45908 48.2734 2.22477 48.2963 2.01489 48.3132L1.99895 48.4241C2.222 48.4467 2.49519 48.4813 2.81853 48.5278C3.1432 48.565 3.47249 48.603 3.8064 48.6415C4.13107 48.6788 4.42274 48.716 4.68142 48.7532L9.89184 49.5023L9.67666 50.999Z" fill="white"/>
<path d="M14.0251 34.4745C13.6141 35.3745 13.0919 36.0799 12.4583 36.5909C11.8287 37.0935 11.0971 37.3698 10.2635 37.4201C9.43387 37.4619 8.51389 37.2521 7.50359 36.7907C6.4848 36.3255 5.72379 35.7676 5.22054 35.1171C4.71268 34.4542 4.44247 33.7203 4.40991 32.9154C4.38123 32.1019 4.57238 31.2453 4.98336 30.3453C5.4021 29.4284 5.92629 28.7187 6.55594 28.2162C7.1856 27.7137 7.91526 27.4415 8.74492 27.3997C9.56998 27.3456 10.4919 27.5511 11.5107 28.0164C12.521 28.4778 13.2801 29.0399 13.7879 29.7028C14.2997 30.3572 14.5718 31.0869 14.6044 31.8918C14.6369 32.6967 14.4438 33.5576 14.0251 34.4745ZM12.8153 33.922C13.0285 33.4551 13.1529 33.0143 13.1884 32.5995C13.2278 32.1763 13.1721 31.7815 13.0213 31.4151C12.8745 31.0402 12.6306 30.698 12.2897 30.3884C11.9527 30.0703 11.5211 29.7911 10.9947 29.5507L10.7145 29.4228C10.1712 29.1746 9.66896 29.0274 9.2079 28.981C8.75072 28.9261 8.33237 28.9659 7.95287 29.1004C7.57724 29.2264 7.2424 29.4429 6.94833 29.7498C6.65814 30.0482 6.40642 30.4309 6.19317 30.8978C5.9838 31.3563 5.85943 31.7971 5.82006 32.2203C5.78457 32.6351 5.84025 33.0299 5.98712 33.4048C6.13787 33.7712 6.38368 34.1092 6.72455 34.4187C7.06541 34.7283 7.50752 35.0072 8.05088 35.2553L8.33105 35.3833C8.85742 35.6237 9.3492 35.7713 9.80638 35.8262C10.2636 35.8811 10.68 35.8455 11.0556 35.7195C11.4351 35.585 11.7699 35.3685 12.0601 35.0701C12.3542 34.7632 12.6059 34.3805 12.8153 33.922Z" fill="white"/>
<path d="M17.9312 27.1779L10.673 20.8886L13.9826 17.0691C14.4288 16.5541 14.8903 16.2069 15.367 16.0272C15.8438 15.8475 16.3213 15.8167 16.7995 15.9347C17.2707 16.0465 17.7249 16.2919 18.1622 16.6709C18.649 17.0926 18.9774 17.5687 19.1477 18.099C19.318 18.6294 19.3135 19.169 19.1344 19.7177L23.4503 20.8084L22.3318 22.0993L18.3362 21.0452L16.1542 23.5634L18.958 25.9929L17.9312 27.1779ZM15.1596 22.7016L17.3599 20.1622C17.69 19.7813 17.8308 19.3908 17.7823 18.9907C17.7399 18.5835 17.5177 18.2057 17.1157 17.8573C16.8688 17.6434 16.621 17.5089 16.3722 17.4539C16.1164 17.3928 15.8663 17.4107 15.6218 17.5076C15.3773 17.6045 15.142 17.7834 14.9158 18.0444L12.7155 20.5837L15.1596 22.7016Z" fill="white"/>
<path d="M26.5089 18.3778L21.3166 10.2984L27.5822 6.27167L28.3089 7.40231L23.3623 10.5813L24.808 12.8308L29.2363 9.98486L29.9629 11.1155L25.5346 13.9614L27.1014 16.3994L32.1186 13.175L32.8452 14.3057L26.5089 18.3778Z" fill="white"/>
<path d="M39.7086 8.49684C39.3773 8.59413 39.0607 8.60926 38.759 8.54223C38.4635 8.46362 38.2029 8.32129 37.977 8.11525C37.7575 7.89761 37.599 7.62313 37.5017 7.29178C37.4018 6.95148 37.3867 6.63492 37.4563 6.3421C37.5323 6.0377 37.6747 5.77704 37.8833 5.56013C38.0983 5.33163 38.3715 5.16874 38.7029 5.07145C39.0432 4.97153 39.361 4.96087 39.6565 5.03949C39.9583 5.10652 40.2189 5.24885 40.4385 5.46648C40.6643 5.67252 40.8272 5.9457 40.9271 6.286C41.0244 6.61734 41.0351 6.93522 40.9591 7.23962C40.8894 7.53244 40.7471 7.7931 40.5321 8.02159C40.3234 8.2385 40.0489 8.39692 39.7086 8.49684Z" fill="white"/>
<path d="M49.9513 10V0.395999H51.5193V8.642L56.3073 8.642V10L49.9513 10Z" fill="white"/>
<path d="M61.1722 10.3866L63.878 1.17158L71.0243 3.26993L70.6457 4.55949L65.0038 2.9029L64.2505 5.46858L69.3013 6.95162L68.9226 8.24118L63.8718 6.75814L63.0554 9.53875L68.7778 11.219L68.3991 12.5086L61.1722 10.3866Z" fill="white"/>
<path d="M71.6329 13.8548L79.9934 7.81143L81.6776 8.8938L79.6652 19.0168L78.2519 18.1085L78.7369 15.7742L74.9092 13.3143L72.9873 14.7252L71.6329 13.8548ZM76.0523 12.4679L79.0202 14.3753L79.6347 11.4252C79.6566 11.3394 79.6843 11.2185 79.7179 11.0626C79.7516 10.9067 79.7888 10.7365 79.8297 10.552C79.8785 10.3726 79.9233 10.1906 79.9643 10.0061C80.0181 9.81876 80.0657 9.64968 80.1072 9.49882L80.0365 9.45341C79.8935 9.57231 79.7211 9.71113 79.5192 9.86986C79.3174 10.0286 79.1206 10.1795 78.9288 10.3225C78.7449 10.4706 78.5915 10.5884 78.4687 10.6759L76.0523 12.4679Z" fill="white"/>
<path d="M82.4213 21.6089L89.6795 15.3196L92.9892 19.1392C93.4354 19.6541 93.7135 20.1603 93.8234 20.6578C93.9334 21.1553 93.896 21.6323 93.7112 22.0888C93.5334 22.5393 93.2258 22.954 92.7885 23.3329C92.3018 23.7547 91.7838 24.012 91.2346 24.1051C90.6854 24.1981 90.152 24.117 89.6343 23.8616L87.9405 27.9784L86.822 26.6875L88.434 22.8825L86.252 20.3644L83.4481 22.7939L82.4213 21.6089ZM87.2465 19.5026L89.4469 22.0419C89.7769 22.4228 90.1434 22.6177 90.5464 22.6267C90.9555 22.6427 91.361 22.4765 91.7631 22.1282C92.01 21.9142 92.1783 21.6881 92.2682 21.4497C92.365 21.2052 92.3829 20.9551 92.3218 20.6993C92.2607 20.4435 92.1171 20.1851 91.891 19.9241L89.6906 17.3848L87.2465 19.5026Z" fill="white"/>
<path d="M89.8326 31.1773L98.5687 27.1877L99.1968 28.5631L95.5412 35.0499C95.5135 35.1241 95.4666 35.2122 95.4003 35.3143C95.3379 35.4248 95.2736 35.5312 95.2074 35.6333C95.1411 35.7353 95.0841 35.8127 95.0363 35.8653L95.0654 35.929C95.1927 35.8708 95.3158 35.8146 95.4347 35.7603C95.5536 35.706 95.6724 35.6517 95.7913 35.5975L101.267 33.0967L101.895 34.472L93.1593 38.4617L92.5544 37.1372L96.2505 30.5704C96.3213 30.456 96.4099 30.3129 96.5162 30.1412C96.631 29.9657 96.7192 29.8331 96.7808 29.7434L96.7517 29.6797C96.6329 29.734 96.5098 29.7902 96.3824 29.8483C96.2636 29.9026 96.1362 29.9608 96.0004 30.0228L90.4607 32.5527L89.8326 31.1773Z" fill="white"/>
<path d="M97.813 45.8229C97.7639 45.4811 97.7939 45.1656 97.9032 44.8765C98.0231 44.5952 98.2011 44.3575 98.4372 44.1632C98.6838 43.9769 98.9781 43.8591 99.3199 43.81C99.6709 43.7595 99.9864 43.7896 100.266 43.9002C100.557 44.0187 100.795 44.1967 100.98 44.4341C101.175 44.6795 101.298 44.973 101.347 45.3149C101.397 45.6659 101.362 45.9821 101.243 46.2633C101.133 46.5525 100.955 46.7902 100.709 46.9766C100.473 47.1708 100.179 47.2932 99.8279 47.3437C99.4861 47.3928 99.17 47.3581 98.8795 47.2396C98.5995 47.129 98.3618 46.951 98.1662 46.7056C97.9812 46.4682 97.8635 46.174 97.813 45.8229Z" fill="white"/>
<path d="M95.503 53.6687L105.009 55.0355L104.661 57.4605L98.6309 58.4747C98.4566 58.5063 98.2593 58.5345 98.0388 58.5593C97.8184 58.5842 97.6078 58.6058 97.4072 58.6241C97.2052 58.6516 97.0283 58.6686 96.8765 58.6751L96.8606 58.786C96.9965 58.8244 97.1581 58.8806 97.3455 58.9547C97.5329 59.0288 97.7295 59.1042 97.9353 59.1809C98.1398 59.2669 98.3305 59.3509 98.5073 59.4329L103.991 62.1167L103.648 64.5001L94.1422 63.1334L94.3634 61.5952L99.5738 62.3443C99.9249 62.3948 100.289 62.4519 100.667 62.5156C101.044 62.5793 101.38 62.637 101.674 62.6887C101.968 62.7405 102.157 62.7723 102.24 62.7843L102.256 62.6734C102.157 62.6403 101.988 62.5689 101.75 62.4591C101.519 62.3599 101.27 62.2534 101.003 62.1397C100.737 62.0259 100.507 61.9221 100.313 61.8282L94.728 59.0592L94.9252 57.6874L101.05 56.602C101.234 56.5718 101.45 56.5416 101.7 56.5115C101.949 56.4813 102.203 56.4519 102.462 56.4231C102.721 56.3943 102.955 56.3714 103.165 56.3544L103.181 56.2435C102.958 56.2209 102.684 56.1863 102.361 56.1398C102.036 56.1026 101.707 56.0647 101.373 56.0261C101.049 55.9888 100.757 55.9516 100.498 55.9144L95.2879 55.1653L95.503 53.6687Z" fill="white"/>
<path d="M91.1546 70.1931C91.5656 69.2932 92.0878 68.5877 92.7214 68.0767C93.351 67.5742 94.0826 67.2978 94.9161 67.2475C95.7458 67.2057 96.6658 67.4155 97.6761 67.8769C98.6949 68.3422 99.4559 68.9001 99.9591 69.5506C100.467 70.2134 100.737 70.9473 100.77 71.7523C100.798 72.5657 100.607 73.4224 100.196 74.3223C99.7776 75.2392 99.2534 75.9489 98.6237 76.4514C97.9941 76.954 97.2644 77.2261 96.4348 77.2679C95.6097 77.322 94.6878 77.1165 93.669 76.6512C92.6587 76.1898 91.8996 75.6277 91.3918 74.9648C90.88 74.3104 90.6079 73.5808 90.5753 72.7758C90.5428 71.9709 90.7358 71.11 91.1546 70.1931ZM92.3644 70.7456C92.1511 71.2125 92.0268 71.6534 91.9913 72.0681C91.9519 72.4913 92.0076 72.8861 92.1583 73.2525C92.3052 73.6274 92.5491 73.9697 92.89 74.2792C93.2269 74.5973 93.6586 74.8765 94.185 75.1169L94.4652 75.2449C95.0085 75.493 95.5107 75.6403 95.9718 75.6867C96.429 75.7415 96.8473 75.7017 97.2268 75.5672C97.6024 75.4412 97.9373 75.2248 98.2314 74.9179C98.5216 74.6194 98.7733 74.2368 98.9865 73.7698C99.1959 73.3114 99.3203 72.8705 99.3596 72.4473C99.3951 72.0326 99.3394 71.6377 99.1926 71.2629C99.0418 70.8965 98.796 70.5585 98.4551 70.2489C98.1143 69.9393 97.6722 69.6605 97.1288 69.4123L96.8486 69.2844C96.3223 69.044 95.8305 68.8963 95.3733 68.8415C94.9161 68.7866 94.4997 68.8221 94.1241 68.9482C93.7446 69.0827 93.4097 69.2991 93.1196 69.5975C92.8255 69.9045 92.5738 70.2871 92.3644 70.7456Z" fill="white"/>
<path d="M87.2475 77.4897L94.5058 83.779L91.1961 87.5986C90.7499 88.1135 90.2884 88.4608 89.8117 88.6404C89.3349 88.8201 88.8574 88.8509 88.3792 88.733C87.908 88.6211 87.4538 88.3757 87.0165 87.9968C86.5298 87.575 86.2013 87.099 86.031 86.5686C85.8607 86.0382 85.8652 85.4987 86.0443 84.9499L81.7284 83.8592L82.8469 82.5684L86.8426 83.6224L89.0245 81.1043L86.2207 78.6747L87.2475 77.4897ZM90.0191 81.9661L87.8188 84.5054C87.4887 84.8863 87.3479 85.2768 87.3964 85.677C87.4388 86.0841 87.661 86.4619 88.063 86.8103C88.3099 87.0242 88.5577 87.1587 88.8065 87.2137C89.0623 87.2748 89.3124 87.2569 89.5569 87.16C89.8014 87.0631 90.0367 86.8842 90.2629 86.6232L92.4632 84.0839L90.0191 81.9661Z" fill="white"/>
<path d="M78.6708 86.2899L83.8631 94.3693L77.5975 98.396L76.8708 97.2654L81.8174 94.0864L80.3717 91.8369L75.9434 94.6828L75.2168 93.5522L79.6451 90.7062L78.0783 88.2683L73.0611 91.4927L72.3345 90.362L78.6708 86.2899Z" fill="white"/>
<path d="M65.4701 96.1707C65.8014 96.0735 66.118 96.0583 66.4197 96.1254C66.7152 96.204 66.9759 96.3463 67.2017 96.5523C67.4213 96.77 67.5797 97.0445 67.677 97.3758C67.7769 97.7161 67.792 98.0327 67.7224 98.3255C67.6464 98.6299 67.504 98.8905 67.2954 99.1075C67.0804 99.336 66.8072 99.4988 66.4759 99.5961C66.1356 99.6961 65.8177 99.7067 65.5222 99.6281C65.2205 99.5611 64.9598 99.4187 64.7403 99.2011C64.5144 98.9951 64.3515 98.7219 64.2516 98.3816C64.1543 98.0502 64.1436 97.7324 64.2196 97.428C64.2893 97.1351 64.4316 96.8745 64.6466 96.646C64.8553 96.4291 65.1298 96.2707 65.4701 96.1707Z" fill="white"/>
</svg>
