<svg width="24" height="24" viewBox="0 0 24 24" fill="none" xmlns="http://www.w3.org/2000/svg">
<path d="M12.7302 11.4725V11.4399C12.7234 11.4509 12.7162 11.462 12.709 11.4725H12.7302Z" fill="white"/>
<path d="M20.8559 1.97559H3.02508C2.17164 1.97559 1.47949 2.65122 1.47949 3.48392V21.5234C1.47949 22.3557 2.17164 23.0313 3.02508 23.0313H20.8559C21.7106 23.0313 22.4027 22.3552 22.4027 21.5234V3.48392C22.4027 2.6508 21.7101 1.97559 20.8559 1.97559ZM7.82144 19.6019H4.66126V10.0943H7.82144V19.6019ZM6.24156 8.79548H6.22039C5.16037 8.79548 4.47457 8.06523 4.47457 7.15294C4.47457 6.22034 5.18154 5.51041 6.2623 5.51041C7.3435 5.51041 8.00855 6.22034 8.02972 7.15294C8.02972 8.06523 7.34307 8.79548 6.24156 8.79548ZM19.2171 19.6019H16.057V14.5143C16.057 13.2367 15.5998 12.3646 14.4563 12.3646C13.5834 12.3646 13.0636 12.9526 12.8345 13.5207C12.7511 13.7235 12.7308 14.0071 12.7308 14.2916V19.6015H9.57065C9.57065 19.6015 9.61214 10.985 9.57065 10.0938H12.7308V11.4396C13.1508 10.7919 13.9018 9.86947 15.5794 9.86947C17.6584 9.86947 19.2176 11.2288 19.2176 14.1494L19.2171 19.6019Z" fill="white"/>
</svg>
