<svg width="48" height="48" viewBox="0 0 48 48" fill="none" xmlns="http://www.w3.org/2000/svg">
<path d="M29.4551 33.2727H18.546C18.2567 33.2727 17.9792 33.3876 17.7746 33.5922C17.57 33.7968 17.4551 34.0743 17.4551 34.3636V35.4545H30.546V34.3636C30.546 34.0743 30.4311 33.7968 30.2265 33.5922C30.0219 33.3876 29.7444 33.2727 29.4551 33.2727Z" fill="#101010"/>
<path d="M17.4551 37.6363C17.4551 37.9256 17.57 38.2031 17.7746 38.4077C17.9792 38.6123 18.2567 38.7272 18.546 38.7272H29.4551C29.7444 38.7272 30.0219 38.6123 30.2265 38.4077C30.4311 38.2031 30.546 37.9256 30.546 37.6363V36.5454H17.4551V37.6363Z" fill="#101010"/>
<path d="M24.0003 43.0908C24.868 43.0901 25.7001 42.7451 26.3137 42.1315C26.9273 41.5179 27.2723 40.6859 27.273 39.8181H20.7275C20.7282 40.6859 21.0733 41.5179 21.6869 42.1315C22.3005 42.7451 23.1325 43.0901 24.0003 43.0908Z" fill="#101010"/>
<path d="M47.3568 18.2291C41.3568 9.7636 32.8914 4.90906 24.1314 4.90906H23.8695C15.1095 4.90906 6.64409 9.7636 0.644085 18.2291C0.580132 18.3222 0.545898 18.4325 0.545898 18.5454C0.545898 18.6584 0.580132 18.7687 0.644085 18.8618C5.79318 26.1327 12.7695 30.7254 20.1823 31.8818V26.9945C18.2503 26.1215 16.6757 24.6129 15.7211 22.7199C14.7664 20.8269 14.4892 18.664 14.9357 16.5915C15.3822 14.5189 16.5254 12.662 18.1749 11.3301C19.8243 9.99813 21.8804 9.27164 24.0005 9.27164C26.1205 9.27164 28.1766 9.99813 29.826 11.3301C31.4755 12.662 32.6187 14.5189 33.0652 16.5915C33.5117 18.664 33.2345 20.8269 32.2798 22.7199C31.3252 24.6129 29.7506 26.1215 27.8186 26.9945V31.8818C35.2314 30.7254 42.2023 26.1327 47.3568 18.8618C47.4208 18.7687 47.455 18.6584 47.455 18.5454C47.455 18.4325 47.4208 18.3222 47.3568 18.2291ZM29.7277 28.4618C29.6654 28.4976 29.5966 28.5208 29.5254 28.53C29.4541 28.5393 29.3817 28.5344 29.3123 28.5156C29.2429 28.4969 29.1779 28.4647 29.1209 28.4208C29.064 28.3769 29.0163 28.3223 28.9805 28.26C28.9446 28.1976 28.9214 28.1289 28.9122 28.0576C28.903 27.9863 28.9079 27.9139 28.9266 27.8445C28.9453 27.7751 28.9776 27.7101 29.0214 27.6532C29.0653 27.5962 29.12 27.5485 29.1823 27.5127C31.158 26.372 32.7022 24.6112 33.5752 22.5035C34.4483 20.3958 34.6014 18.0589 34.011 15.8552C33.4205 13.6516 32.1194 11.7043 30.3094 10.3155C28.4995 8.92667 26.2818 8.17389 24.0005 8.17389C21.7191 8.17389 19.5014 8.92667 17.6915 10.3155C15.8815 11.7043 14.5804 13.6516 13.9899 15.8552C13.3995 18.0589 13.5526 20.3958 14.4257 22.5035C15.2988 24.6112 16.8429 26.372 18.8186 27.5127C18.881 27.5485 18.9356 27.5962 18.9795 27.6532C19.0233 27.7101 19.0556 27.7751 19.0743 27.8445C19.093 27.9139 19.0979 27.9863 19.0887 28.0576C19.0795 28.1289 19.0563 28.1976 19.0205 28.26C18.9846 28.3223 18.9369 28.3769 18.88 28.4208C18.823 28.4647 18.758 28.4969 18.6886 28.5156C18.6192 28.5344 18.5468 28.5393 18.4755 28.53C18.4043 28.5208 18.3355 28.4976 18.2732 28.4618C16.0895 27.201 14.3828 25.2549 13.4178 22.9253C12.4529 20.5957 12.2836 18.0128 12.9362 15.5772C13.5888 13.1416 15.0269 10.9894 17.0274 9.45436C19.0278 7.91934 21.4789 7.08731 24.0005 7.08731C26.522 7.08731 28.9731 7.91934 30.9735 9.45436C32.974 10.9894 34.4121 13.1416 35.0647 15.5772C35.7173 18.0128 35.548 20.5957 34.5831 22.9253C33.6181 25.2549 31.9114 27.201 29.7277 28.4618Z" fill="#101010"/>
<path d="M25.6366 32.1818H26.7275V26.6346C26.7273 26.526 26.7594 26.4199 26.8196 26.3296C26.8798 26.2393 26.9654 26.1689 27.0656 26.1273C28.8263 25.4158 30.2847 24.114 31.1907 22.4451C32.0967 20.7762 32.394 18.8441 32.0316 16.98C31.6692 15.1159 30.6697 13.4359 29.2044 12.2281C27.739 11.0202 25.8992 10.3596 24.0002 10.3596C22.1012 10.3596 20.2613 11.0202 18.796 12.2281C17.3307 13.4359 16.3312 15.1159 15.9687 16.98C15.6063 18.8441 15.9036 20.7762 16.8097 22.4451C17.7157 24.114 19.1741 25.4158 20.9347 26.1273C21.035 26.1689 21.1206 26.2393 21.1808 26.3296C21.241 26.4199 21.273 26.526 21.2729 26.6346V32.1818H22.3638V22.3637H21.2729C20.8414 22.3637 20.4196 22.2357 20.0608 21.9959C19.702 21.7562 19.4223 21.4155 19.2572 21.0168C19.092 20.6181 19.0488 20.1794 19.133 19.7562C19.2172 19.3329 19.425 18.9442 19.7301 18.6391C20.0353 18.3339 20.424 18.1261 20.8473 18.0419C21.2705 17.9578 21.7092 18.001 22.1079 18.1661C22.5065 18.3312 22.8473 18.6109 23.087 18.9697C23.3268 19.3285 23.4547 19.7503 23.4547 20.1818V21.2727H24.5456V20.1818C24.5456 19.7503 24.6736 19.3285 24.9133 18.9697C25.1531 18.6109 25.4938 18.3312 25.8925 18.1661C26.2912 18.001 26.7299 17.9578 27.1531 18.0419C27.5763 18.1261 27.9651 18.3339 28.2702 18.6391C28.5754 18.9442 28.7832 19.3329 28.8674 19.7562C28.9515 20.1794 28.9083 20.6181 28.7432 21.0168C28.5781 21.4155 28.2984 21.7562 27.9396 21.9959C27.5808 22.2357 27.159 22.3637 26.7275 22.3637H25.6366V32.1818Z" fill="#101010"/>
<path d="M24.546 22.3636H23.4551V32.1818H24.546V22.3636Z" fill="#101010"/>
<path d="M20.1826 20.1817C20.1829 20.471 20.2979 20.7483 20.5025 20.9528C20.707 21.1573 20.9843 21.2723 21.2735 21.2726H22.3644V20.1817C22.3644 19.8924 22.2495 19.6149 22.0449 19.4103C21.8403 19.2058 21.5629 19.0908 21.2735 19.0908C20.9842 19.0908 20.7067 19.2058 20.5021 19.4103C20.2976 19.6149 20.1826 19.8924 20.1826 20.1817Z" fill="#101010"/>
<path d="M27.8185 20.1817C27.8185 19.8924 27.7036 19.6149 27.499 19.4103C27.2944 19.2058 27.017 19.0908 26.7276 19.0908C26.4383 19.0908 26.1608 19.2058 25.9562 19.4103C25.7517 19.6149 25.6367 19.8924 25.6367 20.1817V21.2726H26.7276C27.0169 21.2723 27.2941 21.1573 27.4986 20.9528C27.7032 20.7482 27.8182 20.471 27.8185 20.1817Z" fill="#101010"/>
</svg>
