<svg width="128" height="128" viewBox="0 0 128 128" fill="none" xmlns="http://www.w3.org/2000/svg">
<path d="M33.454 62.5454H30.5449V65.4545H33.454V62.5454Z" fill="#101010"/>
<path d="M69.818 81.4545H58.1816V93.9591C62.021 94.7409 65.9786 94.7409 69.818 93.9591V81.4545Z" fill="#101010"/>
<path d="M72.727 78.5454V75.6364H55.2725V78.5454H72.727Z" fill="#101010"/>
<path d="M73.9283 63.8884L65.4539 48V58.45C66.4244 58.7932 67.2423 59.4683 67.7632 60.3562C68.284 61.2441 68.4742 62.2875 68.3001 63.302C68.1261 64.3166 67.5989 65.2369 66.8119 65.9004C66.0249 66.5638 65.0287 66.9278 63.9993 66.9278C62.97 66.9278 61.9737 66.5638 61.1867 65.9004C60.3997 65.2369 59.8726 64.3166 59.6985 63.302C59.5245 62.2875 59.7147 61.2441 60.2355 60.3562C60.7563 59.4683 61.5743 58.7932 62.5448 58.45V48L54.0703 63.8884L60.3842 72.7273H67.6145L73.9283 63.8884Z" fill="#101010"/>
<path d="M63.9995 64C64.8028 64 65.454 63.3488 65.454 62.5454C65.454 61.7421 64.8028 61.0909 63.9995 61.0909C63.1961 61.0909 62.5449 61.7421 62.5449 62.5454C62.5449 63.3488 63.1961 64 63.9995 64Z" fill="#101010"/>
<path d="M65.454 30.5454H62.5449V33.4545H65.454V30.5454Z" fill="#101010"/>
<path d="M123.054 47.5121L113.641 45.4205L112.24 42.0363L117.416 33.9006C117.965 33.0462 118.204 32.029 118.093 31.0193C117.982 30.0096 117.528 29.0687 116.806 28.3539L99.6446 11.1931C98.9297 10.4714 97.9887 10.0171 96.979 9.90619C95.9693 9.79528 94.9521 10.0345 94.0976 10.5838L85.9641 15.7606L82.5791 14.3594L80.4882 4.94674C80.2725 3.95392 79.7224 3.06531 78.9299 2.4296C78.1374 1.79389 77.1506 1.44966 76.1346 1.45452H51.8646C50.8487 1.44966 49.8619 1.79389 49.0693 2.4296C48.2768 3.06531 47.7267 3.95392 47.511 4.94674L45.4201 14.3594L42.0351 15.7606L33.9016 10.5846C33.0475 10.0342 32.0302 9.79423 31.0202 9.90504C30.0102 10.0158 29.0691 10.4707 28.3547 11.1931L11.1928 28.3544C10.4711 29.0693 10.0168 30.0102 9.90584 31.0199C9.79493 32.0296 10.0341 33.0468 10.5835 33.9012L15.7596 42.0363L14.359 45.4199L4.94506 47.5121C3.95255 47.7279 3.06425 48.278 2.42879 49.0704C1.79333 49.8627 1.44926 50.8493 1.45415 51.865V76.135C1.44926 77.1506 1.79333 78.1372 2.42879 78.9296C3.06425 79.7219 3.95255 80.272 4.94506 80.4878L14.3641 82.5809L15.7618 85.9588L10.5836 94.0987C10.0347 94.9533 9.79567 95.9704 9.90657 96.98C10.0175 97.9896 10.4716 98.9305 11.1929 99.6455L28.3547 116.807C29.0693 117.529 30.0103 117.983 31.0202 118.094C32.03 118.205 33.0472 117.966 33.9016 117.416L42.0351 112.239L45.4201 113.641L47.511 123.053C47.7267 124.046 48.2768 124.935 49.0693 125.57C49.8619 126.206 50.8487 126.55 51.8646 126.545H76.1346C77.1506 126.55 78.1374 126.206 78.9299 125.57C79.7224 124.935 80.2725 124.046 80.4882 123.053L82.5791 113.641L85.9641 112.239L94.0976 117.415C94.952 117.965 95.9692 118.204 96.9789 118.093C97.9886 117.982 98.9296 117.528 99.6446 116.807L116.806 99.6455C117.528 98.9305 117.982 97.9896 118.093 96.98C118.204 95.9704 117.965 94.9533 117.416 94.0987L112.24 85.9636L113.64 82.58L123.054 80.4878C124.047 80.272 124.935 79.7219 125.57 78.9296C126.206 78.1372 126.55 77.1506 126.545 76.135V51.865C126.55 50.8493 126.206 49.8627 125.57 49.0704C124.935 48.278 124.047 47.7279 123.054 47.5121ZM96.1913 73.1229C94.2043 80.1292 89.9858 86.2961 84.1759 90.6874C78.3661 95.0786 71.2823 97.4546 63.9996 97.4546C56.7169 97.4546 49.6331 95.0786 43.8233 90.6874C38.0135 86.2961 33.7949 80.1292 31.8079 73.1229C31.7499 72.9374 31.7296 72.7421 31.7483 72.5486C31.767 72.3551 31.8243 72.1673 31.9168 71.9963C32.0093 71.8254 32.1352 71.6747 32.2869 71.5531C32.4387 71.4316 32.6132 71.3418 32.8003 71.2889C32.9874 71.236 33.1831 71.2211 33.376 71.2452C33.5689 71.2692 33.7551 71.3317 33.9234 71.4289C34.0918 71.5261 34.2389 71.6561 34.3562 71.8111C34.4735 71.9662 34.5585 72.1432 34.6062 72.3316C36.0225 77.2691 38.6574 81.7712 42.2686 85.4241C45.8798 89.077 50.3514 91.7634 55.2723 93.2363V81.4545H53.8178C53.432 81.4545 53.062 81.3013 52.7893 81.0285C52.5165 80.7557 52.3632 80.3857 52.3632 80V74.1818C52.3632 73.796 52.5165 73.4261 52.7893 73.1533C53.062 72.8805 53.432 72.7272 53.8178 72.7272H56.8101L51.18 64.8452C51.0224 64.6249 50.9294 64.3649 50.9116 64.0946C50.8938 63.8243 50.9518 63.5544 51.0792 63.3153L62.7155 41.4971C62.7739 41.3899 62.8478 41.2919 62.9347 41.2062C63.0682 41.0554 63.2321 40.9347 63.4157 40.852C63.5993 40.7693 63.7983 40.7265 63.9997 40.7265C64.201 40.7265 64.4001 40.7693 64.5837 40.852C64.7673 40.9347 64.9312 41.0554 65.0646 41.2062C65.1516 41.2919 65.2254 41.3899 65.2837 41.4971L76.92 63.3153C77.0474 63.5544 77.1054 63.8243 77.0876 64.0946C77.0698 64.3649 76.9768 64.6249 76.8192 64.8452L71.1891 72.7272H74.1814C74.5672 72.7272 74.9372 72.8805 75.2099 73.1533C75.4827 73.4261 75.636 73.796 75.636 74.1818V80C75.636 80.3857 75.4827 80.7557 75.2099 81.0285C74.9372 81.3013 74.5672 81.4545 74.1814 81.4545H72.7269V93.2363C77.6478 91.7634 82.1194 89.077 85.7306 85.4241C89.3418 81.7712 91.9767 77.2691 93.3931 72.3316C93.4408 72.1432 93.5258 71.9662 93.643 71.8111C93.7603 71.6561 93.9075 71.5261 94.0758 71.4289C94.2442 71.3317 94.4303 71.2692 94.6232 71.2452C94.8161 71.2211 95.0119 71.236 95.1989 71.2889C95.386 71.3418 95.5605 71.4316 95.7123 71.5531C95.864 71.6747 95.9899 71.8254 96.0824 71.9963C96.1749 72.1673 96.2322 72.3551 96.2509 72.5486C96.2696 72.7421 96.2494 72.9374 96.1913 73.1229ZM97.139 59.6363H98.9087C99.2945 59.6363 99.6644 59.7896 99.9372 60.0624C100.21 60.3351 100.363 60.7051 100.363 61.0909V66.9091C100.363 67.2948 100.21 67.6648 99.9372 67.9376C99.6644 68.2104 99.2945 68.3636 98.9087 68.3636H93.0905C92.7047 68.3636 92.3348 68.2104 92.062 67.9376C91.7892 67.6648 91.636 67.2948 91.636 66.9091V61.0909C91.636 60.7051 91.7892 60.3351 92.062 60.0624C92.3348 59.7896 92.7047 59.6363 93.0905 59.6363H94.206C93.2763 53.1119 90.2544 47.0654 85.5943 42.4053C80.9342 37.7453 74.8877 34.7234 68.3632 33.7937V34.9091C68.3632 35.2948 68.21 35.6648 67.9372 35.9376C67.6644 36.2104 67.2945 36.3636 66.9087 36.3636H61.0905C60.7047 36.3636 60.3348 36.2104 60.062 35.9376C59.7892 35.6648 59.636 35.2948 59.636 34.9091V33.7937C53.1115 34.7234 47.065 37.7453 42.4049 42.4053C37.7448 47.0654 34.7229 53.1119 33.7932 59.6363H34.9087C35.2945 59.6363 35.6644 59.7896 35.9372 60.0624C36.21 60.3351 36.3632 60.7051 36.3632 61.0909V66.9091C36.3632 67.2948 36.21 67.6648 35.9372 67.9376C35.6644 68.2104 35.2945 68.3636 34.9087 68.3636H29.0905C28.7047 68.3636 28.3348 68.2104 28.062 67.9376C27.7892 67.6648 27.636 67.2948 27.636 66.9091V61.0909C27.636 60.7051 27.7892 60.3351 28.062 60.0624C28.3348 59.7896 28.7047 59.6363 29.0905 59.6363H30.8603C31.5954 53.966 33.7758 48.5799 37.1922 43.9951C40.6086 39.4102 45.1462 35.7805 50.3695 33.4545H36.0952C35.7521 34.425 35.0769 35.243 34.189 35.7638C33.3012 36.2846 32.2577 36.4748 31.2432 36.3008C30.2287 36.1267 29.3083 35.5996 28.6448 34.8126C27.9814 34.0256 27.6175 33.0293 27.6175 32C27.6175 30.9706 27.9814 29.9744 28.6448 29.1874C29.3083 28.4004 30.2287 27.8732 31.2432 27.6992C32.2577 27.5251 33.3012 27.7153 34.189 28.2361C35.0769 28.757 35.7521 29.5749 36.0952 30.5454H59.636V29.0909C59.636 28.7051 59.7892 28.3351 60.062 28.0624C60.3348 27.7896 60.7047 27.6363 61.0905 27.6363H66.9087C67.2945 27.6363 67.6644 27.7896 67.9372 28.0624C68.21 28.3351 68.3632 28.7051 68.3632 29.0909V30.5454H91.904C92.2472 29.5749 92.9223 28.757 93.8102 28.2361C94.6981 27.7153 95.7415 27.5251 96.756 27.6992C97.7706 27.8732 98.6909 28.4004 99.3544 29.1874C100.018 29.9744 100.382 30.9706 100.382 32C100.382 33.0293 100.018 34.0256 99.3544 34.8126C98.6909 35.5996 97.7706 36.1267 96.756 36.3008C95.7415 36.4748 94.6981 36.2846 93.8102 35.7638C92.9223 35.243 92.2472 34.425 91.904 33.4545H77.6297C82.853 35.7805 87.3906 39.4102 90.807 43.9951C94.2234 48.5799 96.4038 53.966 97.139 59.6363Z" fill="#101010"/>
<path d="M31.9995 33.4545C32.8028 33.4545 33.454 32.8033 33.454 32C33.454 31.1966 32.8028 30.5454 31.9995 30.5454C31.1961 30.5454 30.5449 31.1966 30.5449 32C30.5449 32.8033 31.1961 33.4545 31.9995 33.4545Z" fill="#101010"/>
<path d="M95.9995 33.4545C96.8028 33.4545 97.454 32.8033 97.454 32C97.454 31.1966 96.8028 30.5454 95.9995 30.5454C95.1961 30.5454 94.5449 31.1966 94.5449 32C94.5449 32.8033 95.1961 33.4545 95.9995 33.4545Z" fill="#101010"/>
<path d="M97.454 62.5454H94.5449V65.4545H97.454V62.5454Z" fill="#101010"/>
</svg>
