<svg width="23" height="23" viewBox="0 0 23 23" fill="none" xmlns="http://www.w3.org/2000/svg">
<g clip-path="url(#clip0_2301_98)">
<path d="M11.6477 10.2829L7.75176 4.83154H5.67383L10.4999 11.5839L11.1074 12.4333L15.2382 18.2179H17.3161L12.2526 11.1323L11.6477 10.2829Z" fill="white"/>
<path d="M20.2778 0.958496H2.72154C1.74753 0.958496 0.958008 1.74802 0.958008 2.72203V20.2783C0.958008 21.2523 1.74753 22.0418 2.72154 22.0418H20.2778C21.2518 22.0418 22.0413 21.2523 22.0413 20.2783V2.72203C22.0413 1.74802 21.2518 0.958496 20.2778 0.958496ZM14.6002 19.1668L10.4194 13.2127L5.18564 19.1668H3.83301L9.81961 12.3582L3.83301 3.8335H8.39913L12.3572 9.47037L17.3164 3.8335H18.6689L12.9602 10.3268L19.1663 19.1668H14.6002Z" fill="white"/>
</g>
<defs>
<clipPath id="clip0_2301_98">
<rect width="23" height="23" fill="white"/>
</clipPath>
</defs>
</svg>
